<svg width="28" height="20" viewBox="0 0 28 20" fill="none" xmlns="http://www.w3.org/2000/svg">
<path d="M24.7222 9.72608C24.6854 6.98049 22.5521 4.75905 19.9353 4.75905C19.3449 4.75905 18.7593 4.87495 18.2115 5.09756C17.7899 3.75183 17.0003 2.5441 15.9445 1.64555C14.6976 0.58441 13.1262 0 11.5198 0C7.73833 0 4.64324 3.15362 4.48342 7.09352C3.27991 7.46883 2.19647 8.2272 1.39865 9.26089C0.496733 10.4295 0 11.9036 0 13.4119C0 17.0446 2.80754 20 6.25859 20H22.5822C25.4023 20 27.6966 17.5849 27.6966 14.6163C27.6966 12.5141 26.5163 10.598 24.7222 9.72608ZM22.5822 18.8688H6.25859C3.40012 18.8688 1.07456 16.4208 1.07456 13.4119C1.07456 12.1627 1.48583 10.9418 2.23272 9.97425C2.96929 9.01996 3.99894 8.34891 5.13188 8.08468C5.38125 8.02654 5.55719 7.79172 5.55289 7.52305L5.55261 7.50442C5.5521 7.47426 5.55153 7.44402 5.55153 7.41371C5.55153 3.94955 8.2289 1.13119 11.5198 1.13119C12.9009 1.13119 14.1973 1.61327 15.2689 2.52525C16.3103 3.41144 17.0459 4.65182 17.3402 6.01776C17.3778 6.19165 17.491 6.33681 17.6458 6.40935C17.8007 6.48189 17.9788 6.4733 18.1267 6.38612C18.6773 6.06172 19.3027 5.89024 19.9353 5.89024C21.9825 5.89024 23.6481 7.64347 23.6481 9.79847C23.6481 9.87675 23.6451 9.96015 23.6387 10.061C23.6229 10.3107 23.765 10.5418 23.9878 10.6289C25.5634 11.2446 26.622 12.847 26.622 14.6164C26.622 16.9612 24.8098 18.8688 22.5822 18.8688Z" fill="white"/>
</svg>
