<svg width="15" height="20" viewBox="0 0 15 20" fill="none" xmlns="http://www.w3.org/2000/svg">
<path d="M4.40594 3.09167C4.56263 2.88857 4.86267 2.84487 5.07598 2.99417C5.2893 3.14346 5.33512 3.42915 5.17842 3.63231C1.69073 8.15229 0.958637 11.1513 0.958637 12.8712C0.958637 14.5565 1.48726 16.0843 2.44718 17.1732C3.56673 18.4431 5.19331 19.0871 7.28167 19.0871C11.9487 19.0871 13.6047 15.7386 13.6047 12.8712C13.6047 9.69252 11.8088 6.58813 10.3021 4.54347C8.64969 2.30089 6.97205 0.80563 6.95543 0.790902C6.76148 0.619331 6.75036 0.33048 6.93051 0.145764C7.11066 -0.0388917 7.41395 -0.0495425 7.60784 0.122028C7.67878 0.184776 9.36504 1.68606 11.075 4.0029C12.6663 6.15912 14.5633 9.44792 14.5633 12.8711C14.5633 14.7616 13.9451 16.4984 12.8228 17.7616C11.5216 19.226 9.60545 20 7.28167 20C4.93034 20 3.00475 19.2255 1.71304 17.7602C0.608373 16.5072 -4.76837e-06 14.7709 -4.76837e-06 12.8712C5.91278e-05 9.50763 2.39599 5.6965 4.40594 3.09167Z" fill="white"/>
<path d="M5.10097 9.01645L11.1823 14.8082C11.3695 14.9865 11.3695 15.2755 11.1823 15.4537C11.0887 15.5428 10.966 15.5874 10.8434 15.5874C10.7207 15.5874 10.598 15.5429 10.5044 15.4537L4.42306 9.66195C4.23588 9.48369 4.23588 9.19465 4.42306 9.01645C4.61037 8.83819 4.91379 8.83819 5.10097 9.01645Z" fill="white"/>
<path d="M5.51411 12.6532C6.36354 12.6532 7.05461 13.3113 7.05461 14.1203C7.05461 14.9293 6.36354 15.5874 5.51411 15.5874C4.66469 15.5874 3.97362 14.9293 3.97362 14.1203C3.97362 13.3113 4.66469 12.6532 5.51411 12.6532ZM5.51411 14.6745C5.83498 14.6745 6.09603 14.4259 6.09603 14.1203C6.09603 13.8147 5.83498 13.5661 5.51411 13.5661C5.19325 13.5661 4.93219 13.8147 4.93219 14.1203C4.93219 14.4259 5.19325 14.6745 5.51411 14.6745Z" fill="white"/>
<path d="M9.78215 11.8171C8.93272 11.8171 8.24165 11.1589 8.24165 10.35C8.24165 9.54097 8.93272 8.88281 9.78215 8.88281C10.6316 8.88281 11.3226 9.54097 11.3226 10.35C11.3226 11.1589 10.6316 11.8171 9.78215 11.8171ZM9.78215 9.79568C9.46128 9.79568 9.20023 10.0443 9.20023 10.3499C9.20023 10.6555 9.46128 10.9041 9.78215 10.9041C10.103 10.9041 10.3641 10.6555 10.3641 10.3499C10.3641 10.0443 10.1031 9.79568 9.78215 9.79568Z" fill="white"/>
</svg>
