<svg width="23" height="20" viewBox="0 0 23 20" fill="none" xmlns="http://www.w3.org/2000/svg">
<path d="M19.263 10.4083H0.472025C0.211278 10.4083 0 10.2038 0 9.95141C0 9.69907 0.211278 9.49449 0.472025 9.49449H19.1717C19.2012 9.48888 19.2317 9.48596 19.263 9.48596C20.803 9.48596 22.056 8.2731 22.056 6.78231C22.056 5.29153 20.803 4.07861 19.263 4.07861C17.7229 4.07861 16.4699 5.29147 16.4699 6.78225C16.4699 7.0346 16.2587 7.23918 15.9979 7.23918C15.7372 7.23918 15.5259 7.0346 15.5259 6.78225C15.5259 4.78757 17.2023 3.16476 19.263 3.16476C21.3236 3.16476 23 4.78757 23 6.78225C23 8.74544 21.3762 10.3484 19.3604 10.3985C19.329 10.405 19.2964 10.4083 19.263 10.4083Z" fill="white"/>
<path d="M9.58418 7.24351H0.472025C0.211278 7.24351 0 7.03893 0 6.78658C0 6.53424 0.211278 6.32966 0.472025 6.32966H9.49292C9.52244 6.32406 9.55296 6.32113 9.58418 6.32113C11.1242 6.32113 12.3772 5.10828 12.3772 3.61749C12.3772 2.1267 11.1242 0.913846 9.58418 0.913846C8.04406 0.913846 6.79111 2.1267 6.79111 3.61749C6.79111 3.86983 6.57984 4.07441 6.31909 4.07441C6.05834 4.07441 5.84706 3.86983 5.84706 3.61749C5.84706 1.62281 7.52357 0 9.58418 0C11.6448 0 13.3212 1.62281 13.3212 3.61749C13.3212 5.58067 11.6974 7.18362 9.68167 7.23376C9.6502 7.24009 9.6176 7.24351 9.58418 7.24351Z" fill="white"/>
<path d="M15.3682 20C13.3076 20 11.6311 18.3772 11.6311 16.3825C11.6311 16.1302 11.8424 15.9256 12.1032 15.9256C12.3639 15.9256 12.5752 16.1302 12.5752 16.3825C12.5752 17.8733 13.8281 19.0861 15.3682 19.0861C16.9083 19.0861 18.1612 17.8733 18.1612 16.3825C18.1612 14.8917 16.9083 13.6789 15.3682 13.6789H0.472025C0.211278 13.6789 0 13.4743 0 13.2219C0 12.9696 0.211278 12.765 0.472025 12.765H15.3682C17.4289 12.765 19.1053 14.3878 19.1053 16.3825C19.1053 18.3772 17.4289 20 15.3682 20Z" fill="white"/>
</svg>
